<?xml version="1.0" encoding="UTF-8"?> <svg xmlns="http://www.w3.org/2000/svg" width="100" height="180" viewBox="0 0 100 180" fill="none"> <path d="M19.959 68.5168V31.0721C20.1414 31.0721 20.2366 30.9807 20.3279 30.9807C26.2816 30.9807 32.2353 30.9807 38.1889 31.0721C40.0492 31.0721 41.8143 31.4455 43.4882 32.2838C48.6962 34.7987 49.4419 40.1065 48.2321 43.7417C47.4904 45.9745 45.7213 47.2776 43.5834 48.1198C43.3017 48.2112 42.9329 48.3979 42.6512 48.5847C42.8377 48.6761 43.1193 48.7714 43.3017 48.7714C44.9796 49.2362 46.467 50.0745 47.768 51.2863C50.0011 53.4277 50.4652 56.1292 50.1876 59.0175C49.7195 64.0472 45.7213 67.309 41.259 68.1473C40.0492 68.33 38.8394 68.5168 37.6297 68.5168H19.959ZM26.8408 62.7441H37.1656C37.9073 62.7441 38.653 62.6488 39.3987 62.462C41.6279 61.9058 43.0241 60.1339 43.2105 57.8972C43.3969 55.2909 42.3736 53.2409 40.1405 52.4026C39.1171 52.0292 38.0025 51.7511 36.884 51.7511C33.7227 51.6597 30.6526 51.7511 27.4913 51.7511H26.9321C26.8408 55.3823 26.8408 59.0175 26.8408 62.7441ZM26.8408 46.4433H36.1422C36.6063 46.4433 36.9792 46.4433 37.4432 46.3479C40.6045 45.8831 42.2784 43.7417 41.8143 40.5713C41.6279 38.9901 40.791 37.8697 39.3987 37.2182C38.3754 36.7534 37.352 36.5666 36.3287 36.5666H27.0273C26.8408 39.9198 26.8408 43.0862 26.8408 46.4433Z" fill="#171718"></path> <path d="M71.4882 68.4254H64.5111V54.266C64.5111 53.8925 64.4159 53.5191 64.2295 53.1496C60.0449 45.9745 55.8602 38.8034 51.6756 31.537C51.5804 31.3502 51.4892 31.1635 51.3027 30.9768H58.5574C58.7439 30.9768 59.1167 31.1635 59.2079 31.3502C61.8139 36.0105 64.6024 40.5714 66.7443 45.4183C67.2083 46.4433 67.5812 47.373 68.0453 48.4894C68.1365 48.398 68.2317 48.3026 68.2317 48.2113C70.4609 42.7167 73.5349 37.6831 76.4146 32.4666C77.0651 31.3502 77.7195 30.8854 79.0205 30.9768C80.6944 31.0721 82.4634 30.9768 84.1373 30.9768H84.6014C84.415 31.2589 84.3237 31.4456 84.2285 31.7237C80.0439 38.8948 75.8592 46.0699 71.7658 53.241C71.5794 53.6144 71.4882 53.9879 71.4882 54.3574V68.4254Z" fill="#171718"></path> <path fill-rule="evenodd" clip-rule="evenodd" d="M0 0H99.9991V100.149H0V0ZM5.31509 94.8254H94.6879V5.3237H5.31509V94.8254Z" fill="#171718"></path> <path fill-rule="evenodd" clip-rule="evenodd" d="M0 95.0122H99.9991V149H0V95.0122ZM5.31509 143.68H94.6879V100.336H5.31509V143.68Z" fill="#171718"></path> <path d="M62.3252 126.2V117.817H68.5565V119.398H64.1855V121.074H67.906V122.564H64.1855V124.523H68.6478V126.2H62.3252Z" fill="#171718"></path> <path d="M38.9791 117.841V126.172H37.0554V122.755H33.2753V126.172H31.3516V117.841H33.2753V121.126H37.0554V117.841H38.9791Z" fill="#171718"></path> <path d="M46.3091 124.332C46.7057 124.106 47.0151 123.792 47.2412 123.387C47.4673 122.981 47.5823 122.521 47.5823 122.008C47.5823 121.492 47.4673 121.031 47.2412 120.626C47.0151 120.22 46.7057 119.906 46.3091 119.68C45.9124 119.454 45.4682 119.342 44.9763 119.342C44.4884 119.342 44.0442 119.454 43.6475 119.68C43.2509 119.906 42.9415 120.22 42.7154 120.626C42.4893 121.031 42.3783 121.492 42.3783 122.008C42.3783 122.521 42.4893 122.981 42.7154 123.387C42.9415 123.792 43.2509 124.106 43.6475 124.332C44.0442 124.559 44.4884 124.67 44.9763 124.67C45.4682 124.67 45.9124 124.559 46.3091 124.332ZM42.644 125.755C41.9499 125.381 41.4104 124.869 41.0138 124.213C40.6251 123.558 40.4268 122.823 40.4268 122.008C40.4268 121.19 40.6251 120.455 41.0138 119.799C41.4104 119.144 41.9499 118.631 42.644 118.258C43.3342 117.884 44.1156 117.698 44.9763 117.698C45.841 117.698 46.6184 117.884 47.3046 118.258C47.9948 118.631 48.5382 119.144 48.9349 119.799C49.3315 120.455 49.5298 121.19 49.5298 122.008C49.5298 122.823 49.3315 123.558 48.9349 124.213C48.5382 124.869 47.9948 125.381 47.3046 125.755C46.6184 126.128 45.841 126.315 44.9763 126.315C44.1156 126.315 43.3342 126.128 42.644 125.755Z" fill="#171718"></path> <path d="M58.5456 126.172L58.5337 121.174L56.0864 125.29H55.2217L52.7823 121.281V126.172H50.9775V117.841H52.5721L55.6858 123.017L58.7479 117.841H60.3305L60.3503 126.172H58.5456Z" fill="#171718"></path> </svg> 