<?xml version="1.0" encoding="UTF-8"?>
<svg xmlns="http://www.w3.org/2000/svg" width="99" height="147" viewBox="0 0 99 147" fill="none"> <g clip-path="url(#clip0)"> <path d="M19.6562 67.3672V30.5508C19.8359 30.5508 19.9297 30.4609 20.0195 30.4609C25.8828 30.4609 31.7461 30.4609 37.6094 30.5508C39.4414 30.5508 41.1797 30.918 42.8281 31.7422C47.957 34.2148 48.6914 39.4336 47.5 43.0078C46.7695 45.2031 45.0273 46.4844 42.9219 47.3125C42.6445 47.4023 42.2812 47.5859 42.0039 47.7695C42.1875 47.8594 42.4648 47.9531 42.6445 47.9531C44.2969 48.4102 45.7617 49.2344 47.043 50.4258C49.2422 52.5312 49.6992 55.1875 49.4258 58.0273C48.9648 62.9727 45.0273 66.1797 40.6328 67.0039C39.4414 67.1836 38.25 67.3672 37.0586 67.3672H19.6562ZM26.4336 61.6914H36.6016C37.332 61.6914 38.0664 61.5977 38.8008 61.4141C40.9961 60.8672 42.3711 59.125 42.5547 56.9258C42.7383 54.3633 41.7305 52.3477 39.5312 51.5234C38.5234 51.1562 37.4258 50.8828 36.3242 50.8828C33.2109 50.793 30.1875 50.8828 27.0742 50.8828H26.5234C26.4336 54.4531 26.4336 58.0273 26.4336 61.6914ZM26.4336 45.6641H35.5938C36.0508 45.6641 36.418 45.6641 36.875 45.5703C39.9883 45.1133 41.6367 43.0078 41.1797 39.8906C40.9961 38.3359 40.1719 37.2344 38.8008 36.5938C37.793 36.1367 36.7852 35.9531 35.7773 35.9531H26.6172C26.4336 39.25 26.4336 42.3633 26.4336 45.6641Z" fill="white"/> <path d="M70.4023 67.2774H63.5312V53.3555C63.5312 52.9883 63.4375 52.6211 63.2539 52.2578C59.1328 45.2032 55.0117 38.1524 50.8906 31.0078C50.7969 30.8243 50.707 30.6407 50.5234 30.4571H57.668C57.8516 30.4571 58.2187 30.6407 58.3086 30.8243C60.875 35.4063 63.6211 39.8907 65.7305 44.6563C66.1875 45.6641 66.5547 46.5782 67.0117 47.6758C67.1016 47.586 67.1953 47.4922 67.1953 47.4024C69.3906 42 72.418 37.0508 75.2539 31.9219C75.8945 30.8243 76.5391 30.3672 77.8203 30.4571C79.4688 30.5508 81.2109 30.4571 82.8594 30.4571H83.3164C83.1328 30.7344 83.043 30.918 82.9492 31.1914C78.8281 38.2422 74.707 45.2969 70.6758 52.3477C70.4922 52.7149 70.4023 53.0821 70.4023 53.4453V67.2774Z" fill="white"/> <path fill-rule="evenodd" clip-rule="evenodd" d="M0 0H98.4805V98.4688H0V0ZM5.23438 93.2344H93.25V5.23438H5.23438V93.2344Z" fill="white"/> <path fill-rule="evenodd" clip-rule="evenodd" d="M0 93.418H98.4805V146.5H0V93.418ZM5.23438 141.27H93.25V98.6523H5.23438V141.27Z" fill="white"/> <path d="M61.3789 124.082V115.84H67.5156V117.395H63.2109V119.043H66.875V120.508H63.2109V122.434H67.6055V124.082H61.3789Z" fill="white"/> <path d="M38.3867 115.863V124.055H36.4922V120.695H32.7695V124.055H30.875V115.863H32.7695V119.094H36.4922V115.863H38.3867Z" fill="white"/> <path d="M45.6055 122.246C45.9961 122.023 46.3008 121.715 46.5234 121.316C46.7461 120.918 46.8594 120.465 46.8594 119.961C46.8594 119.453 46.7461 119 46.5234 118.602C46.3008 118.203 45.9961 117.895 45.6055 117.672C45.2148 117.449 44.7773 117.34 44.293 117.34C43.8125 117.34 43.375 117.449 42.9844 117.672C42.5938 117.895 42.2891 118.203 42.0664 118.602C41.8438 119 41.7344 119.453 41.7344 119.961C41.7344 120.465 41.8438 120.918 42.0664 121.316C42.2891 121.715 42.5938 122.023 42.9844 122.246C43.375 122.469 43.8125 122.578 44.293 122.578C44.7773 122.578 45.2148 122.469 45.6055 122.246ZM41.9961 123.645C41.3125 123.277 40.7812 122.773 40.3906 122.129C40.0078 121.484 39.8125 120.762 39.8125 119.961C39.8125 119.156 40.0078 118.434 40.3906 117.789C40.7812 117.145 41.3125 116.641 41.9961 116.273C42.6758 115.906 43.4453 115.723 44.293 115.723C45.1445 115.723 45.9102 115.906 46.5859 116.273C47.2656 116.641 47.8008 117.145 48.1914 117.789C48.582 118.434 48.7773 119.156 48.7773 119.961C48.7773 120.762 48.582 121.484 48.1914 122.129C47.8008 122.773 47.2656 123.277 46.5859 123.645C45.9102 124.012 45.1445 124.195 44.293 124.195C43.4453 124.195 42.6758 124.012 41.9961 123.645Z" fill="white"/> <path d="M57.6562 124.055L57.6445 119.141L55.2344 123.188H54.3828L51.9805 119.246V124.055H50.2031V115.863H51.7734L54.8398 120.953L57.8555 115.863H59.4141L59.4336 124.055H57.6562Z" fill="white"/> </g> <defs> <clipPath id="clip0"> <rect width="98.4814" height="146.5" fill="white"/> </clipPath> </defs> </svg>