<svg xmlns="http://www.w3.org/2000/svg" width="60" height="60" viewBox="0 0 60 60" fill="none"> <rect width="60" height="60" fill="#D5E24A"></rect> <path d="M32.5269 37.8466L39.8182 30.4621C39.9334 30.3456 40 30.1771 40 30C40 29.8229 39.9342 29.6544 39.8182 29.5379L32.5269 22.1534C32.3048 21.9289 31.9676 21.9536 31.7726 22.2092C31.5777 22.464 31.5991 22.8532 31.8212 23.0776L38.0102 29.3456H20.5347C20.2394 29.3456 20 29.6212 20 29.9612C20 30.3011 20.2394 30.5767 20.5347 30.5767H38.0859L31.8204 36.9224C31.7003 37.0436 31.6386 37.2141 31.6386 37.3845C31.6386 37.5284 31.6822 37.6743 31.7718 37.7908C31.9676 38.0464 32.3057 38.0711 32.5269 37.8466Z" fill="#171717"></path> </svg> 