<?xml version="1.0" encoding="UTF-8"?> <svg xmlns="http://www.w3.org/2000/svg" width="20" height="24" viewBox="0 0 20 24" fill="none"> <path d="M19.016 15.0323L10.1546 23.7819C10.0148 23.92 9.8125 24 9.6 24C9.3875 24 9.18523 23.921 9.04545 23.7819L0.184046 15.0323C-0.0852734 14.7658 -0.0557283 14.3611 0.251091 14.1272C0.556775 13.8932 1.02382 13.9189 1.29314 14.1854L8.81477 21.6122V0.641605C8.81477 0.287242 9.14545 0 9.55341 0C9.96137 0 10.292 0.287242 10.292 0.641605V21.7031L17.9069 14.1844C18.0523 14.0403 18.2569 13.9663 18.4614 13.9663C18.6341 13.9663 18.8091 14.0186 18.9489 14.1262C19.2557 14.3611 19.2853 14.7668 19.016 15.0323Z" fill="white"></path> </svg> 